<?xml version="1.0" standalone="no"?>
<!DOCTYPE svg PUBLIC "-//W3C//DTD SVG 20010904//EN"
 "http://www.w3.org/TR/2001/REC-SVG-20010904/DTD/svg10.dtd">
<svg version="1.0" xmlns="http://www.w3.org/2000/svg"
 width="400.000000pt" height="400.000000pt" viewBox="0 0 400.000000 400.000000"
 preserveAspectRatio="xMidYMid meet">
<metadata>
Created by potrace 1.11, written by Peter Selinger 2001-2013
</metadata>
<g transform="translate(0.000000,400.000000) scale(0.100000,-0.100000)"
fill="#000000" stroke="none">
<path d="M2216 3929 c-149 -16 -363 -78 -465 -136 -150 -84 -192 -115 -278
-202 -156 -157 -199 -223 -256 -396 -65 -197 -91 -347 -90 -520 1 -267 68
-444 265 -698 57 -73 57 -77 -10 -143 -45 -45 -69 -83 -105 -159 -64 -135 -59
-128 -95 -145 -23 -11 -32 -22 -32 -41 0 -19 -24 -49 -98 -120 -95 -92 -133
-147 -147 -215 -4 -19 5 -8 26 31 19 36 71 101 129 162 64 66 100 112 105 132
4 17 12 31 19 31 23 0 62 54 104 142 51 109 141 233 157 217 7 -7 -23 -143
-43 -197 -33 -85 -74 -140 -199 -264 -65 -64 -147 -153 -182 -197 -35 -44 -91
-100 -124 -123 -32 -24 -104 -77 -160 -118 -55 -41 -107 -79 -115 -85 -45 -30
-206 -165 -318 -267 -134 -121 -204 -196 -268 -285 -35 -49 -37 -55 -34 -118
l3 -67 40 57 c22 31 52 71 66 88 15 18 62 75 105 127 204 246 341 360 474 395
49 12 130 9 130 -7 0 -5 -15 -6 -34 -3 -30 6 -35 4 -49 -24 l-15 -30 24 16
c15 10 24 11 25 4 3 -26 4 -30 12 -37 4 -4 7 5 7 19 0 16 8 30 20 37 11 6 20
8 20 4 0 -3 6 -2 13 4 9 8 21 7 41 -3 32 -17 36 -18 36 -7 0 10 -62 37 -78 34
-31 -7 -4 35 43 66 28 19 53 44 57 58 3 14 2 22 -3 18 -18 -11 -8 9 21 43 17
18 30 30 30 25 0 -5 -7 -15 -15 -22 -15 -12 -21 -71 -8 -83 3 -4 15 0 25 10
10 9 21 13 26 8 4 -4 1 -10 -5 -12 -7 -3 -13 -12 -13 -20 0 -9 -6 -13 -15 -9
-18 7 -20 -5 -3 -22 20 -20 38 -14 38 12 0 14 4 27 8 30 5 3 5 -17 2 -45 -4
-27 -3 -49 2 -49 4 0 8 -4 8 -10 0 -5 -7 -10 -15 -10 -8 0 -12 -6 -9 -14 3 -8
1 -17 -5 -21 -6 -3 -11 1 -11 9 0 22 -11 20 -39 -10 -23 -24 -23 -25 -5 -39
26 -20 33 -18 27 5 -4 16 0 20 21 20 19 0 29 7 36 25 6 14 15 23 23 19 7 -2
22 4 32 16 10 11 24 20 31 20 15 0 34 30 34 53 0 23 -40 9 -77 -26 -18 -17
-33 -26 -33 -21 0 17 42 52 83 69 25 10 41 26 51 48 7 17 12 34 10 35 -1 2
-19 -15 -40 -38 -20 -22 -43 -39 -50 -36 -7 3 -22 -6 -33 -19 -24 -31 -32 -32
-27 -2 2 12 -1 28 -7 35 -5 7 -7 16 -3 19 4 4 11 1 16 -7 8 -13 11 -13 22 -1
8 9 9 11 1 7 -6 -3 -14 -3 -17 2 -3 5 19 33 49 62 30 30 55 50 55 44 0 -6 -9
-19 -20 -29 -11 -10 -20 -25 -19 -34 0 -11 4 -9 11 7 6 12 20 22 30 22 11 0
16 5 13 10 -4 6 -1 18 7 27 11 15 11 16 -6 10 -16 -7 -17 -5 -5 9 9 11 15 12
17 5 3 -9 8 -9 20 1 14 10 15 10 4 -2 -15 -18 -16 -38 -1 -23 7 7 13 22 14 35
4 40 6 43 15 23 8 -19 9 -19 9 4 1 17 -3 22 -14 17 -19 -7 -19 1 -1 19 7 8 16
11 20 8 3 -4 6 1 6 9 0 9 7 18 15 22 13 5 13 2 -1 -19 -12 -18 -13 -32 -7 -51
8 -23 10 -25 22 -10 9 11 10 16 2 16 -15 0 -14 37 1 46 8 5 9 2 5 -9 -3 -10
-2 -17 3 -17 9 0 14 29 13 68 -1 6 2 12 6 12 8 0 71 84 71 94 0 11 -139 -132
-192 -197 -72 -88 -150 -167 -165 -167 -7 0 -13 10 -13 23 0 34 -28 67 -56 67
-33 0 -30 10 11 43 25 20 42 26 56 22 14 -5 29 1 47 17 l27 23 -23 -26 c-19
-22 -21 -28 -8 -38 11 -10 17 -8 30 11 9 12 16 28 16 35 0 18 -33 33 -58 26
-25 -6 -27 -1 -11 29 12 22 75 52 90 42 6 -3 25 -3 43 0 l33 6 -1 62 -1 61 55
11 c82 17 105 38 55 50 -28 7 -32 18 -11 35 28 23 73 30 95 14 20 -13 21 -12
21 11 0 24 -14 40 -35 41 -12 0 -15 9 -8 34 3 12 25 27 64 41 51 18 60 25 57
43 -2 16 -11 23 -30 25 -54 6 -18 65 47 78 25 4 35 11 31 20 -4 11 -2 11 14 2
23 -15 33 -7 24 17 -5 13 -15 16 -40 12 -44 -7 -70 20 -57 60 11 30 34 35 82
19 23 -8 24 -7 18 28 -7 45 -1 46 17 3 7 -19 36 -50 64 -71 l50 -37 37 21 c36
20 37 20 42 1 3 -11 11 -17 17 -15 27 10 40 -24 29 -81 -6 -37 -6 -58 1 -65
16 -16 23 -12 35 21 19 55 13 77 -32 122 -24 23 -50 53 -59 67 l-16 25 5 -26
c4 -22 -1 -29 -29 -43 -32 -16 -34 -16 -50 4 -9 11 -20 20 -26 20 -14 0 -45
38 -38 48 11 18 56 20 67 3 10 -17 9 -6 -7 52 -7 22 -7 22 15 3 13 -12 19 -26
15 -38 -4 -12 0 -18 11 -18 9 0 14 3 12 8 -2 4 -11 24 -21 44 -23 51 -39 60
-108 60 -41 0 -47 8 -23 28 8 7 15 22 15 34 0 15 3 17 9 7 6 -9 11 -10 15 -2
12 18 19 14 96 -59 41 -38 79 -70 84 -70 6 0 5 -4 -3 -9 -12 -8 -12 -12 -2
-25 8 -9 21 -16 30 -15 11 0 9 3 -6 9 -13 5 -23 12 -23 16 0 3 7 3 15 0 29
-11 3 19 -93 107 -57 52 -99 84 -108 80 -22 -8 -17 13 11 44 17 19 24 23 25
12 0 -8 -6 -21 -12 -27 -10 -10 -10 -15 2 -22 8 -5 20 -10 25 -10 6 0 3 5 -5
10 -13 8 -13 11 1 25 15 15 25 8 118 -82 57 -54 113 -103 126 -110 12 -7 25
-19 29 -28 3 -8 17 -15 32 -15 20 0 25 -4 20 -16 -3 -9 -6 -20 -6 -25 0 -17
-23 -9 -64 24 -43 35 -86 62 -56 35 8 -7 16 -20 16 -29 1 -10 21 -47 45 -83
l43 -66 15 25 c17 27 47 35 37 10 -6 -18 -1 -19 25 -5 13 8 19 7 19 -1 0 -6
-9 -13 -19 -16 -14 -4 -21 -15 -23 -41 -4 -43 -28 -57 -28 -16 0 17 -4 24 -9
18 -11 -11 12 -166 35 -236 10 -31 21 -48 32 -48 12 0 13 -3 5 -11 -25 -25 24
-75 136 -141 44 -26 52 -40 9 -17 -26 14 -35 4 -17 -18 7 -10 -12 9 -43 42
-65 70 -89 70 -29 1 23 -26 45 -55 51 -65 5 -10 29 -24 54 -30 25 -6 48 -16
52 -22 4 -8 1 -8 -12 -1 -11 5 -32 12 -48 16 -30 7 -31 2 -11 -46 4 -11 3 -18
-4 -18 -6 0 -11 7 -11 16 0 20 -46 102 -73 132 l-22 24 -6 -29 c-6 -24 -7 -22
-8 15 -1 28 -7 48 -21 60 -11 9 -29 25 -40 35 -11 9 -22 17 -25 17 -14 0 -2
-45 22 -83 45 -70 74 -97 107 -98 l31 -2 -29 -4 -28 -5 23 -24 c12 -13 18 -24
12 -24 -6 0 -13 7 -17 15 -3 8 -20 21 -38 29 -18 8 -27 15 -20 15 9 1 5 11
-11 31 -14 16 -31 43 -38 60 -17 37 -26 38 -31 3 -6 -44 1 -59 35 -77 30 -15
30 -16 5 -11 -26 5 -26 4 -16 -31 5 -20 8 -38 5 -40 -2 -3 -10 16 -17 41 -12
44 -30 61 -30 28 0 -21 -69 -224 -82 -240 -22 -27 4 -30 48 -6 25 14 47 23 50
20 3 -3 -11 -15 -33 -26 -37 -20 -37 -20 -10 -21 15 0 46 9 67 20 22 11 40 16
40 10 0 -6 -12 -16 -27 -22 -52 -21 1 -20 58 1 65 25 79 19 18 -8 -38 -17 -41
-20 -19 -21 14 -2 31 -2 38 -1 6 1 12 -3 12 -10 0 -12 -11 -11 -131 10 -25 4
-63 7 -85 7 -38 -1 -39 -2 -84 -86 l-46 -85 17 -195 c16 -165 43 -340 53 -340
2 0 15 18 30 40 14 22 31 40 36 40 6 0 -6 -22 -26 -49 -34 -48 -35 -51 -23
-90 11 -37 29 -56 29 -31 0 14 65 113 84 129 24 20 19 3 -10 -31 -30 -37 -74
-121 -74 -143 0 -22 28 -75 40 -75 5 0 23 28 40 62 20 40 29 52 25 33 -3 -16
-17 -47 -31 -67 -13 -21 -24 -42 -24 -48 0 -6 27 -10 64 -10 59 0 66 2 89 30
14 16 33 50 42 75 25 65 38 56 14 -12 -34 -100 -52 -92 216 -93 129 0 235 2
235 6 0 10 -75 116 -194 274 -64 85 -123 174 -133 198 -15 40 -15 45 1 79 9
19 30 52 47 72 17 20 57 83 89 141 61 110 81 127 140 115 329 -66 321 -65 379
-35 52 26 138 95 152 122 7 13 12 53 11 90 -2 63 -1 67 29 92 21 18 42 26 70
26 62 0 94 43 69 91 -9 16 -7 21 17 30 26 10 42 25 43 41 0 3 -19 14 -43 23
-48 18 -188 18 -194 -1 -2 -6 4 -11 14 -11 54 1 81 -5 112 -24 41 -25 35 -37
-8 -15 -17 9 -58 19 -91 23 -65 6 -70 15 -27 47 36 27 139 25 197 -3 l40 -19
0 44 c0 34 6 51 25 69 28 29 36 30 101 10 69 -21 85 -19 128 16 37 31 38 33
33 88 -2 31 -9 85 -16 121 -27 154 -55 348 -55 385 0 29 11 59 41 110 23 39
46 88 52 110 56 214 56 213 55 410 -1 175 -3 197 -28 285 -66 230 -210 413
-455 579 -118 79 -287 175 -338 191 -15 5 -71 25 -123 45 -267 101 -371 121
-534 104z m-81 -69 c-4 -6 -21 -16 -38 -24 -37 -15 -97 -66 -97 -81 0 -5 -26
-23 -57 -40 -59 -31 -129 -86 -222 -174 -81 -76 -49 -80 44 -6 43 35 124 79
132 72 2 -3 -10 -11 -26 -18 -17 -8 -31 -17 -31 -21 0 -5 -6 -8 -14 -8 -8 0
-36 -17 -63 -37 -83 -65 -113 -84 -113 -74 0 5 5 13 11 17 8 4 8 9 0 17 -16
16 -62 -21 -88 -73 -23 -45 -73 -103 -81 -95 -3 2 8 19 23 37 15 18 39 54 55
79 18 30 45 56 81 77 30 17 86 61 124 97 39 36 98 82 132 102 35 20 69 46 77
58 8 13 43 41 77 64 60 40 86 51 74 31z m-48 -56 c-3 -3 -12 -4 -19 -1 -8 3
-5 6 6 6 11 1 17 -2 13 -5z m303 -11 c2 -2 -14 -2 -37 -1 -23 2 -39 6 -37 10
5 7 64 0 74 -9z m158 -68 c3 3 -7 19 -23 35 -16 17 -24 30 -19 30 5 0 27 -21
48 -46 37 -44 90 -84 111 -84 5 0 -15 26 -45 57 -58 60 -42 54 22 -9 21 -20
38 -41 38 -48 0 -13 130 -136 141 -133 5 2 13 -6 19 -17 6 -11 48 -38 93 -61
45 -22 90 -48 101 -57 18 -16 18 -15 11 28 -4 25 -11 52 -16 61 -4 9 -5 26 -2
37 7 29 -36 85 -87 114 -22 13 -40 26 -40 30 0 14 64 -27 93 -60 16 -18 32
-30 35 -28 8 8 -23 50 -75 101 l-48 47 58 -48 c63 -52 96 -99 74 -107 -8 -4
-9 -8 -2 -14 6 -4 10 -19 9 -32 -2 -32 23 -152 34 -163 8 -8 16 79 14 162 -1
22 2 30 7 21 5 -7 6 -51 3 -97 -5 -83 -5 -84 39 -169 24 -48 51 -94 60 -104
18 -19 77 -119 112 -191 12 -25 24 -47 28 -50 3 -3 20 -40 39 -82 38 -84 50
-87 60 -16 11 79 -28 198 -98 302 -43 64 -47 70 -33 62 6 -4 28 -33 48 -64 80
-123 112 -230 93 -314 -23 -105 -27 -154 -21 -228 l7 -75 12 60 c7 33 22 84
33 112 11 29 19 58 16 65 -2 7 -8 1 -12 -14 -4 -16 -14 -28 -21 -28 -12 0 -12
6 2 33 9 17 25 44 36 59 22 31 18 57 -19 133 -27 55 -65 176 -58 183 2 3 7 -4
11 -14 17 -55 23 -59 24 -19 4 91 19 87 17 -5 -2 -102 14 -166 39 -156 11 4
14 -8 14 -51 0 -40 5 -62 17 -76 15 -15 15 -19 3 -17 -8 1 -22 2 -30 1 -13 -1
-13 -3 -1 -10 10 -7 12 -13 5 -23 -18 -22 -42 -100 -54 -168 -6 -36 -25 -94
-41 -129 -17 -35 -29 -72 -26 -82 4 -15 0 -19 -19 -19 -31 0 -30 14 2 84 23
50 26 68 25 167 -2 181 -31 261 -126 343 -49 42 -151 173 -142 182 2 3 17 -15
32 -38 38 -57 125 -149 136 -143 9 6 -38 92 -98 181 -22 32 -53 83 -68 113
-38 76 -106 138 -216 195 -68 36 -117 71 -174 127 -100 95 -145 118 -260 135
l-90 13 68 -3 c68 -2 68 -2 45 16 -13 10 -42 31 -65 46 -24 15 -43 31 -43 35
0 4 30 -13 66 -38 37 -25 69 -43 72 -40z m-488 40 c-46 -18 -64 -17 -25 0 17
8 37 14 45 14 8 0 -1 -7 -20 -14z m638 -35 c31 -27 59 -50 63 -50 3 0 5 12 3
28 -3 22 -2 21 7 -7 5 -18 8 -36 5 -39 -6 -5 -103 67 -131 98 -34 37 -3 20 53
-30z m-858 12 c-14 -9 -65 -58 -115 -108 -49 -51 -115 -110 -145 -132 -110
-79 -228 -217 -205 -240 4 -4 30 6 58 22 l52 28 -24 -26 c-14 -14 -30 -26 -36
-26 -18 0 -48 -38 -98 -125 -63 -111 -90 -195 -85 -268 3 -34 1 -54 -5 -48
-19 19 -8 127 22 219 24 70 31 110 31 167 0 40 3 76 8 78 4 3 6 -34 5 -81 l-3
-87 30 60 c17 33 30 72 30 88 0 38 36 91 114 167 37 36 74 79 82 96 8 17 28
46 45 65 37 41 27 19 -15 -33 -16 -21 -27 -41 -23 -44 9 -9 71 43 150 124 82
85 124 122 140 121 7 0 1 -8 -13 -17z m453 -33 c-10 -9 -183 -16 -183 -7 0 3
-7 8 -17 10 -9 2 34 3 95 4 62 0 109 -3 105 -7z m75 4 c-10 -2 -26 -2 -35 0
-10 3 -2 5 17 5 19 0 27 -2 18 -5z m545 -133 c-6 -6 -103 101 -103 113 0 4 24
-18 54 -50 30 -32 52 -60 49 -63z m-688 68 c-27 -5 -54 -13 -60 -18 -6 -5 -44
-16 -85 -24 -77 -16 -113 -36 -257 -143 -40 -30 -73 -60 -73 -68 0 -19 24 -19
40 0 7 8 17 15 23 15 5 0 4 -8 -5 -17 -19 -23 -35 -62 -63 -149 -28 -89 -38
-108 -87 -167 -22 -26 -48 -71 -58 -100 -11 -29 -19 -43 -19 -32 0 11 8 45 19
75 11 30 19 63 20 73 0 9 5 17 11 17 6 0 8 -9 4 -20 -10 -32 1 -24 37 28 37
50 46 71 74 167 9 33 22 66 27 73 13 17 -4 15 -30 -3 -32 -22 -81 -114 -97
-181 -11 -47 -15 -52 -15 -26 -1 41 39 141 79 194 57 78 34 91 -40 22 -27 -25
-53 -43 -58 -40 -9 5 -57 -157 -68 -230 -3 -22 -9 -55 -14 -74 -22 -85 -32
-171 -30 -250 1 -47 -4 -98 -10 -114 -6 -16 -12 -53 -14 -83 -2 -30 -7 -57
-10 -60 -13 -13 -5 106 10 156 19 65 11 163 -11 140 -34 -36 -71 -224 -62
-314 7 -65 53 -204 79 -235 l20 -25 -8 30 c-4 17 -10 66 -14 110 -4 44 -10 87
-14 96 -4 10 -3 20 3 24 6 3 11 -1 11 -9 0 -9 4 -16 10 -16 18 0 32 86 34 215
1 121 3 134 29 185 31 61 30 37 -3 -54 -14 -38 -20 -75 -18 -110 3 -40 5 -47
12 -31 5 11 18 31 28 44 10 13 18 34 18 47 0 13 12 54 26 91 14 37 34 100 45
138 25 91 28 99 35 93 3 -3 0 -27 -7 -52 -6 -26 -9 -49 -6 -52 3 -3 35 19 71
50 37 31 76 56 88 56 24 0 97 56 148 114 19 22 47 54 62 71 14 16 29 27 32 24
3 -3 -17 -29 -44 -59 -28 -29 -49 -55 -46 -57 2 -3 26 5 51 16 54 24 59 25 50
12 -3 -5 -34 -19 -70 -31 -36 -12 -68 -26 -71 -31 -3 -6 -24 -23 -45 -39 -47
-34 -133 -147 -161 -210 -11 -25 -28 -88 -39 -140 -14 -72 -35 -127 -83 -225
-35 -71 -67 -147 -70 -167 -4 -21 -12 -40 -18 -44 -17 -11 -4 55 33 168 29 89
31 102 23 160 l-10 63 -22 -42 c-12 -23 -22 -54 -22 -68 0 -14 -7 -58 -14 -98
-27 -131 -29 -256 -4 -241 4 3 7 13 6 22 -2 11 5 18 21 20 19 3 23 0 17 -14
-6 -17 -5 -17 14 1 26 24 26 9 -2 -32 -13 -19 -29 -31 -36 -28 -8 3 -11 0 -8
-7 3 -7 9 -21 12 -31 6 -17 7 -17 20 0 12 16 13 16 14 2 0 -9 -11 -28 -24 -42
-18 -20 -21 -27 -10 -31 8 -3 14 -17 14 -31 0 -30 16 -33 25 -5 3 11 11 20 16
20 13 0 11 -6 -8 -43 -10 -18 -18 -41 -18 -52 0 -11 -7 -21 -16 -23 -12 -2
-18 7 -23 30 -4 22 -32 62 -82 118 -75 84 -113 138 -133 193 -6 15 -7 27 -2
27 5 0 16 -20 25 -45 19 -48 92 -148 127 -173 14 -9 7 4 -18 35 -77 98 -106
180 -117 338 -5 78 -20 125 -65 212 -34 64 -37 74 -19 70 8 -1 16 30 24 93 11
82 21 113 73 221 33 70 65 130 71 134 6 4 0 -15 -14 -42 -46 -89 -81 -177 -78
-198 2 -15 1 -17 -6 -6 -11 16 -27 -48 -38 -152 -4 -37 -11 -64 -15 -61 -5 3
-9 0 -9 -5 0 -6 5 -11 10 -11 6 0 10 -6 10 -13 0 -8 14 -42 31 -77 17 -35 33
-86 36 -114 6 -47 18 -70 33 -61 15 9 10 150 -6 184 -30 62 -44 134 -42 216 1
44 3 65 5 48 l4 -33 41 47 c22 26 51 63 64 82 13 20 39 46 57 58 34 24 35 25
82 198 18 65 43 120 51 112 3 -3 -2 -19 -10 -36 -22 -41 -21 -59 2 -37 40 39
79 68 109 81 18 8 80 48 137 89 88 63 120 80 193 102 48 14 99 30 113 34 14 5
41 8 60 8 30 0 28 -2 -15 -10z m114 -4 c2 -2 -7 -4 -22 -4 -14 0 -29 5 -32 10
-6 10 42 4 54 -6z m-89 -35 c17 -6 10 -7 -20 -3 -25 3 -49 10 -55 16 -10 9 22
4 75 -13z m565 -25 c18 -43 18 -44 6 -44 -5 0 -12 11 -15 24 -3 13 -9 31 -12
40 -13 33 6 14 21 -20z m70 -9 c22 -8 31 -14 20 -14 -11 0 -31 6 -45 14 -32
18 -25 18 25 0z m81 -21 c17 -14 17 -15 1 -10 -10 3 -23 6 -28 6 -5 0 -9 5 -9
10 0 14 13 12 36 -6z m-866 -24 c0 -5 -6 -10 -12 -11 -7 -1 -28 -2 -45 -4 -18
-1 -43 -9 -55 -17 -35 -22 -164 -80 -153 -69 18 18 178 94 215 101 50 11 50
11 50 0z m915 -10 c3 -5 2 -10 -4 -10 -5 0 -13 5 -16 10 -3 6 -2 10 4 10 5 0
13 -4 16 -10z m225 -107 c17 -36 30 -73 29 -82 0 -9 -12 14 -27 51 -15 37 -33
73 -40 80 -15 15 -16 32 -2 23 6 -4 24 -36 40 -72z m70 -51 c11 -49 30 -79 30
-50 1 7 9 -10 18 -38 19 -54 50 -109 58 -101 10 9 -26 151 -46 185 -14 23 -16
31 -6 23 25 -21 56 -117 60 -187 5 -79 -2 -76 -64 35 -42 74 -80 170 -80 200
1 27 16 -7 30 -67z m-683 -139 c-1 -1 -10 16 -19 38 -9 22 -12 37 -7 33 6 -3
9 10 8 33 -5 90 5 89 12 -2 4 -55 6 -101 6 -102z m705 162 c3 -14 1 -25 -3
-25 -5 0 -9 11 -9 25 0 14 2 25 4 25 2 0 6 -11 8 -25z m-1289 -9 c-10 -14 -29
-28 -42 -31 -14 -3 -56 -37 -95 -74 -39 -37 -93 -82 -119 -100 -26 -18 -53
-41 -60 -52 -6 -10 -15 -19 -20 -19 -19 0 28 51 78 83 29 20 71 55 92 78 29
32 160 132 181 138 2 1 -5 -10 -15 -23z m500 -166 c4 -8 16 -87 27 -174 12
-88 24 -165 28 -173 6 -10 13 -3 25 23 10 20 15 39 13 42 -3 3 0 12 7 20 15
19 14 150 -2 210 -7 23 -8 48 -4 55 4 6 6 21 4 32 -2 11 1 17 5 12 9 -9 17
-112 17 -222 0 -59 -6 -96 -23 -140 -25 -66 -36 -141 -25 -183 l7 -27 14 30
c11 23 12 24 8 5 -14 -52 -25 -149 -27 -240 -3 -71 -9 -107 -25 -144 -12 -27
-22 -50 -22 -52 0 -4 77 -44 85 -44 3 0 5 19 5 42 0 39 -1 41 -15 22 -14 -18
-14 -17 -6 11 5 17 12 89 15 160 3 72 8 148 11 170 9 62 18 56 11 -7 -3 -32
-3 -58 1 -58 11 1 39 41 48 69 15 48 36 93 41 88 3 -3 -4 -27 -15 -52 -12 -26
-21 -49 -21 -51 0 -15 29 5 87 61 37 36 72 65 77 65 11 0 -115 -117 -159 -147
-48 -33 -66 -80 -63 -163 l3 -71 30 23 c76 57 138 134 176 216 21 47 39 96 39
109 0 14 11 47 25 75 14 27 25 56 25 63 0 8 4 16 8 19 11 7 7 -41 -5 -56 -17
-21 -44 -90 -37 -97 7 -8 39 33 69 89 14 26 24 37 25 27 0 -20 -19 -53 -66
-112 -38 -48 -88 -145 -75 -145 5 0 20 14 33 31 13 18 42 50 64 73 23 23 49
55 58 71 12 21 15 23 11 8 -5 -18 -3 -22 9 -17 27 10 18 -5 -13 -20 -15 -8
-70 -63 -122 -122 -52 -59 -113 -128 -136 -154 -24 -26 -43 -50 -43 -54 0 -15
39 -4 82 23 50 32 208 189 208 207 0 6 7 17 15 24 18 15 20 -1 3 -18 -7 -7 -8
-12 -3 -12 5 0 33 23 61 51 40 40 53 47 57 35 4 -10 1 -16 -6 -16 -15 0 -69
-54 -68 -67 0 -4 -13 -12 -29 -18 -16 -5 -71 -51 -123 -102 -52 -50 -112 -100
-134 -112 -41 -20 -71 -60 -36 -46 10 3 42 11 70 17 61 12 112 51 162 125 19
27 55 63 80 78 25 16 49 33 52 38 4 5 12 6 18 3 7 -5 -7 -17 -33 -31 -48 -26
-106 -76 -106 -92 0 -5 -22 -33 -49 -61 -43 -45 -47 -52 -28 -52 41 0 180 91
221 144 15 20 46 49 69 64 59 37 140 81 152 81 11 1 -57 -43 -95 -59 -20 -9
-22 -13 -10 -20 11 -7 8 -10 -13 -10 -21 0 -44 -15 -85 -55 -65 -62 -56 -69
38 -31 33 14 60 21 60 17 0 -8 -103 -45 -155 -56 -16 -3 -48 -20 -69 -37 -48
-39 -97 -57 -156 -58 -103 -1 -125 -13 -198 -110 l-24 -30 24 0 c18 0 29 9 41
35 23 48 50 62 137 69 97 8 139 20 181 51 47 33 97 56 139 61 27 4 22 0 -20
-14 -30 -10 -66 -24 -80 -32 -23 -13 -24 -14 -5 -21 20 -9 20 -9 0 -7 -11 1
-42 -9 -70 -21 -27 -12 -72 -25 -99 -28 l-49 -6 29 -24 29 -23 -30 -1 c-64 -2
-114 -9 -140 -19 -47 -18 -23 -20 70 -5 49 8 90 13 93 11 6 -7 -28 -15 -103
-26 -38 -5 -74 -10 -80 -11 -21 -3 93 -20 168 -25 53 -4 83 -1 93 7 16 13 19
2 5 -20 -5 -7 -13 -11 -19 -7 -6 3 -30 0 -54 -8 -24 -8 -91 -16 -149 -18 -105
-3 -107 -4 -146 -38 -21 -19 -60 -49 -85 -67 -26 -17 -52 -41 -58 -53 -11 -20
-10 -21 12 -15 12 4 59 31 103 60 99 65 139 85 162 84 20 0 14 -4 -54 -29 -18
-7 -33 -16 -33 -19 0 -4 15 -6 33 -4 27 4 29 2 14 -7 -10 -7 -29 -9 -42 -6
-27 7 -44 -10 -18 -18 15 -4 14 -4 -2 -3 -16 1 -95 -30 -95 -37 0 -1 32 -3 71
-4 l72 -1 81 63 c124 96 154 110 218 102 29 -4 67 -7 83 -8 24 0 25 -1 7 -5
-13 -3 -19 -9 -16 -15 5 -8 1 -9 -12 -3 -39 18 -121 17 -155 -1 -36 -18 -172
-121 -177 -133 -1 -4 20 -13 48 -20 27 -7 50 -17 50 -22 0 -5 15 -18 33 -29
17 -11 27 -20 21 -20 -6 0 -27 10 -46 23 -69 47 -134 58 -184 32 -16 -8 -39
-15 -51 -15 -60 0 12 -48 102 -68 104 -23 144 -25 151 -8 8 20 34 21 34 1 0
-11 13 -15 53 -15 82 0 133 31 187 113 24 38 46 64 48 59 4 -12 -61 -107 -95
-139 -13 -13 -35 -26 -48 -29 -40 -10 -29 -26 13 -20 20 3 66 8 102 12 36 3
85 15 110 26 49 21 87 32 76 20 -4 -4 -11 -7 -14 -8 -14 -2 -47 -18 -52 -25
-3 -4 -37 -13 -75 -19 -38 -6 -71 -13 -73 -15 -2 -2 25 -13 60 -24 34 -11 57
-20 50 -20 -6 -1 26 -39 73 -85 47 -46 85 -90 85 -96 0 -7 -9 -2 -20 11 -10
13 -19 20 -20 14 0 -5 -8 6 -18 25 -27 50 -48 51 -23 1 24 -46 25 -51 11 -51
-5 0 -10 6 -10 14 0 61 -94 166 -161 181 -16 4 -31 11 -34 16 -4 5 -21 9 -38
9 l-32 -1 30 -16 c50 -26 85 -65 96 -108 7 -22 22 -69 34 -105 26 -74 41 -144
25 -120 -5 8 -10 26 -10 39 0 28 -14 19 -24 -14 -3 -11 -3 -1 -1 23 3 23 2 54
-1 69 -6 22 -9 24 -18 11 -8 -12 -11 -1 -12 46 0 39 -6 70 -17 87 -18 27 -97
77 -97 60 0 -6 -13 -5 -32 4 -18 7 -52 14 -74 16 -35 3 -45 -1 -66 -26 -30
-34 -63 -29 -56 9 4 22 1 24 -61 34 -36 6 -67 10 -68 8 -2 -2 1 -15 7 -30 5
-15 10 -45 10 -66 0 -27 8 -47 25 -67 13 -15 25 -22 25 -15 0 6 12 12 27 12
14 0 35 7 45 17 14 13 18 13 18 2 0 -8 -7 -23 -15 -33 -21 -27 -19 -36 8 -37
29 -1 98 -27 74 -28 -32 -2 -7 -21 26 -21 26 0 29 2 17 11 -12 9 -11 9 5 4
130 -48 197 36 119 150 -33 49 -24 57 12 10 36 -48 41 -135 9 -159 -17 -14
-18 -17 -5 -26 11 -7 0 -9 -37 -6 -45 4 -53 2 -54 -12 0 -12 -3 -10 -10 7 -7
17 -14 21 -27 16 -24 -11 -39 -10 -102 8 -30 8 -58 13 -62 11 -4 -2 -11 3 -16
12 -6 11 -17 15 -31 11 -15 -4 -21 0 -21 11 0 10 -9 28 -20 42 -12 16 -20 41
-20 68 0 48 -23 112 -40 112 -13 0 -60 -97 -60 -126 0 -17 5 -20 30 -16 25 4
30 1 30 -17 0 -20 -9 -25 -40 -21 -11 1 -10 -2 4 -13 18 -13 18 -14 -3 -20
-25 -6 -28 -37 -5 -72 16 -25 69 -48 111 -48 13 1 26 -4 30 -10 9 -15 -72 0
-117 22 l-38 18 10 -23 c6 -13 14 -24 18 -24 3 0 16 -9 28 -21 13 -11 31 -21
42 -22 11 -1 20 -5 20 -10 0 -19 -56 6 -90 39 -31 30 -35 41 -40 101 -4 38 -3
100 0 138 9 105 -7 175 -37 157 -16 -10 -42 -236 -38 -332 3 -87 22 -137 65
-174 39 -32 41 -32 79 -1 27 24 30 24 28 6 0 -11 -4 -19 -7 -19 -3 0 -15 -3
-27 -7 -31 -10 -29 -25 2 -25 14 0 25 -4 25 -9 0 -16 49 -19 76 -5 33 18 39
18 22 0 -8 -8 -23 -16 -34 -18 -16 -4 -15 -7 10 -17 23 -9 33 -9 50 2 11 7 30
17 41 20 16 6 15 3 -5 -13 -14 -11 -32 -20 -40 -21 -8 0 -3 -5 12 -11 23 -8
33 -6 58 12 16 12 30 26 30 31 0 6 4 7 10 4 5 -3 -5 -19 -23 -35 l-32 -29 27
-1 c17 0 33 8 40 20 7 11 17 20 22 20 5 0 1 -9 -9 -20 -14 -16 -15 -20 -3 -20
18 0 42 19 57 45 11 19 12 19 6 -2 -7 -27 7 -30 29 -7 14 13 16 13 16 0 0 -8
-10 -18 -21 -21 -15 -5 -18 -10 -10 -15 7 -4 -2 -8 -21 -9 -18 -2 -41 -3 -50
-4 -21 -2 -23 -13 -5 -24 19 -12 47 -60 47 -80 0 -10 7 -27 15 -37 8 -11 15
-25 15 -30 0 -6 -9 -1 -18 12 l-18 24 -14 -44 c-8 -24 -20 -52 -28 -63 -14
-20 -14 -14 4 30 12 29 -15 15 -46 -25 -34 -43 -47 -49 -47 -24 0 9 10 20 23
24 33 13 39 30 10 30 -14 0 -29 -6 -33 -12 -4 -7 -17 -20 -28 -28 -19 -14 -20
-14 -2 6 9 11 17 25 17 31 0 6 25 14 55 18 63 7 80 27 76 85 -3 53 -47 92
-134 119 -98 31 -225 95 -265 134 -19 18 -40 48 -48 67 -23 53 -28 183 -11
270 15 73 11 100 -13 85 -9 -6 -9 -10 1 -16 11 -6 11 -11 1 -21 -9 -9 -15 -9
-23 -1 -16 16 -1 53 27 63 29 11 30 29 4 62 -11 14 -24 37 -29 52 -9 22 -14
25 -43 19 -46 -8 -53 -17 -40 -50 7 -16 13 -107 15 -218 3 -214 11 -248 78
-346 44 -65 88 -105 144 -130 22 -10 34 -19 26 -19 -9 0 -6 -10 11 -33 38 -50
43 -66 9 -27 -47 55 -62 69 -119 111 -28 22 -64 58 -80 81 l-27 42 -3 -29 c-4
-28 10 -99 29 -145 6 -18 29 -34 71 -53 34 -15 59 -29 56 -33 -3 -3 -25 4 -48
16 -55 28 -61 20 -13 -17 54 -43 76 -53 120 -54 30 -2 32 -3 11 -6 -16 -2 -28
-9 -28 -14 0 -5 -11 -2 -24 6 -23 16 -25 15 -28 -7 -4 -21 -5 -21 -13 7 -8 30
-22 45 -59 66 -16 10 -18 9 -13 -10 3 -11 1 -21 -4 -21 -5 0 -9 11 -9 24 0 13
-12 50 -27 82 -20 44 -29 82 -34 149 -3 50 -14 110 -24 135 -14 36 -18 80 -19
225 -2 237 -6 244 -120 281 -90 29 -163 28 -233 -1 -24 -10 -39 -12 -41 -5 -2
5 -13 10 -25 10 -12 0 -37 10 -56 21 -30 18 -33 22 -18 31 16 9 16 11 -2 36
-11 15 -37 45 -58 67 -21 22 -64 72 -95 111 -61 76 -102 114 -125 114 -11 0
-11 6 2 31 22 42 12 48 -16 10 -13 -17 -26 -31 -31 -31 -9 0 -11 41 -2 64 8
21 25 10 18 -12 -5 -16 -4 -16 8 -1 7 9 26 17 41 17 22 0 27 -4 21 -17 -15
-37 -14 -48 4 -71 l19 -23 35 26 c19 15 38 27 41 27 7 0 185 -146 215 -177 14
-14 9 -15 -59 -8 -41 4 -82 11 -91 16 -16 9 -36 -5 -21 -14 9 -5 184 -22 196
-19 5 2 20 -6 35 -16 45 -31 59 -35 27 -8 -22 19 -26 26 -13 26 9 0 19 4 22 8
2 4 -11 6 -30 4 -21 -3 -34 0 -34 7 0 6 -5 11 -10 11 -18 0 -170 132 -170 147
0 8 -4 12 -9 8 -5 -3 -36 20 -69 50 -33 30 -64 55 -70 55 -18 0 -24 19 -17 50
8 35 25 40 25 8 l0 -21 25 23 c20 19 25 20 25 7 0 -9 -10 -23 -22 -31 l-22
-16 44 -45 c25 -25 50 -43 57 -41 6 3 14 0 17 -7 2 -7 5 -2 5 10 1 12 -3 24
-8 27 -10 6 -26 94 -25 136 0 14 4 39 8 55 l8 30 -21 -32 c-27 -43 -49 -44
-24 -1 22 38 36 44 56 24 13 -14 17 -14 27 -1 7 8 17 12 22 9 6 -4 -7 -23 -27
-42 -37 -36 -37 -38 -31 -95 6 -65 21 -100 39 -94 14 5 10 39 -5 48 -9 6 53
64 68 64 4 0 13 -24 21 -54 11 -44 11 -56 1 -63 -10 -6 -10 -8 2 -8 12 -1 11
-3 -2 -11 -25 -14 -23 -32 3 -24 15 5 19 4 15 -4 -4 -6 -3 -11 1 -11 5 0 14
-12 21 -27 11 -26 11 -26 6 -3 -3 14 -6 32 -7 40 -3 25 33 23 71 -4 41 -28
104 -56 124 -56 7 1 -9 9 -35 20 -27 10 -64 30 -83 45 -21 16 -44 25 -59 23
-13 -2 -24 2 -24 7 0 6 8 10 18 9 9 0 23 6 30 13 6 7 8 13 4 13 -5 0 -7 19 -6
43 3 47 -2 41 -12 -15 -4 -29 -11 -38 -25 -38 -14 0 -22 11 -30 43 -6 23 -19
65 -29 92 -25 70 -33 105 -23 105 5 0 15 -27 22 -59 l12 -59 42 5 c22 3 47 10
54 16 8 6 12 6 10 1 -6 -21 121 -112 135 -98 3 3 3 -4 0 -15 -4 -17 -8 -19
-19 -10 -21 17 -17 2 5 -20 12 -12 23 -16 32 -10 10 6 11 9 2 9 -7 0 -13 8
-13 18 1 15 2 15 18 -3 14 -17 24 -19 56 -14 72 12 212 -36 272 -92 18 -17 23
-18 33 -5 7 8 19 39 27 68 37 142 -8 285 -106 336 -67 35 -121 83 -176 156
-27 35 -64 73 -81 83 -18 9 -33 21 -33 26 0 4 11 0 25 -9 29 -19 33 -10 8 20
l-18 21 24 -20 c13 -11 32 -37 43 -58 21 -43 168 -197 186 -197 24 0 10 22
-62 98 -76 79 -138 185 -130 220 3 9 -9 38 -25 62 -17 25 -31 50 -31 55 1 6 5
2 11 -7 15 -27 26 -22 34 18 3 20 9 34 11 31 3 -3 0 -23 -5 -45 -9 -31 -8 -45
4 -68 8 -16 15 -37 15 -46 0 -46 54 -136 124 -208 40 -41 80 -87 90 -102 23
-38 37 -36 25 4 -5 18 -9 48 -9 66 0 18 -11 60 -25 93 -13 33 -27 79 -30 101
-4 22 -11 51 -16 65 -5 14 -6 29 -3 35 4 5 2 20 -4 31 -12 26 -52 126 -59 147
-2 8 3 4 11 -10 25 -41 58 -131 71 -195 l12 -60 7 57 c5 32 5 69 2 84 -5 18
-3 24 5 18 8 -5 10 -30 4 -88 -10 -114 -8 -130 14 -182 11 -25 25 -80 30 -122
7 -54 20 -97 43 -141 32 -61 33 -63 38 -35 5 27 -5 113 -30 259 -6 33 -17 116
-24 185 -8 71 -23 149 -35 180 -12 32 -17 56 -11 58 6 2 11 22 12 45 0 27 4
15 8 -33 4 -41 10 -82 13 -90z m-43 98 c0 -14 -19 1 -31 25 -12 22 -12 22 10
3 11 -11 21 -23 21 -28z m-375 22 c-3 -5 -11 -10 -16 -10 -6 0 -7 5 -4 10 3 6
11 10 16 10 6 0 7 -4 4 -10z m1320 -44 c14 -30 25 -67 24 -83 0 -23 -3 -20
-13 17 -7 25 -21 62 -30 83 -9 20 -14 37 -11 37 3 0 16 -24 30 -54z m-258 12
c-3 -8 -6 -5 -6 6 -1 11 2 17 5 13 3 -3 4 -12 1 -19z m92 -42 c-5 -5 -4 -15 2
-22 6 -8 9 -19 6 -26 -9 -24 -25 36 -19 72 5 33 6 33 12 10 4 -14 3 -29 -1
-34z m-76 -26 c4 -30 3 -38 -3 -25 -8 19 -14 83 -6 74 2 -2 6 -24 9 -49z
m-739 -10 c4 -25 3 -31 -4 -20 -5 8 -10 26 -10 39 0 32 6 24 14 -19z m-124 15
c0 -8 -2 -15 -4 -15 -2 0 -6 7 -10 15 -3 8 -1 15 4 15 6 0 10 -7 10 -15z m744
-34 c-6 -6 -24 19 -24 34 1 6 7 1 15 -9 8 -11 12 -22 9 -25z m-654 -94 c0 -5
-20 13 -45 40 -24 26 -44 52 -45 56 0 5 20 -13 45 -40 24 -26 44 -52 45 -56z
m700 41 c0 -14 -19 1 -31 25 -12 22 -12 22 10 3 11 -11 21 -23 21 -28z m198
-66 c19 -43 32 -87 31 -110 l-1 -37 -8 45 c-5 25 -23 77 -41 115 -44 92 -44
92 -27 75 8 -8 29 -48 46 -88z m191 -41 c3 -56 3 -101 -1 -101 -5 0 -8 24 -8
53 0 28 -3 77 -6 107 -4 30 -4 52 0 48 5 -3 11 -52 15 -107z m-1267 26 c20
-38 0 -26 -27 15 -24 37 -25 40 -6 23 13 -11 27 -28 33 -38z m725 14 c-14 -17
-37 -57 -52 -88 -15 -32 -37 -71 -49 -88 -12 -16 -37 -57 -56 -90 -39 -71 -39
-70 -45 -63 -3 2 8 29 25 59 22 41 31 74 36 131 9 111 23 161 17 63 -2 -44 -6
-88 -8 -97 -7 -38 14 -15 50 55 45 86 95 160 102 153 3 -3 -6 -19 -20 -35z
m635 -68 c-4 -55 -12 -54 -12 2 0 27 3 45 7 41 4 -4 6 -23 5 -43z m-898 -5 c3
-23 2 -38 -4 -38 -6 0 -10 19 -10 42 0 49 6 47 14 -4z m41 -15 c-4 -27 -16
-76 -27 -110 -11 -35 -18 -69 -15 -75 5 -16 37 44 37 69 1 10 7 29 15 43 l15
25 -6 -30 c-6 -29 -5 -28 20 10 14 22 26 37 26 32 0 -10 -91 -160 -102 -168
-5 -3 -16 -26 -24 -50 l-14 -44 6 45 c4 25 13 69 20 99 8 29 13 68 11 85 -2
17 -2 23 0 13 7 -30 23 -8 23 33 0 38 8 70 17 70 2 0 1 -21 -2 -47z m889 -54
c2 -63 -1 -101 -10 -118 -8 -14 -14 -45 -14 -68 0 -24 -4 -43 -8 -43 -10 0 2
112 14 131 4 7 6 56 5 108 -1 53 0 93 4 89 4 -3 8 -48 9 -99z m-74 62 c0 -10
7 -35 15 -54 24 -57 19 -134 -16 -237 -26 -80 -28 -95 -16 -107 12 -13 17 -9
36 22 11 20 21 46 22 58 1 13 5 5 10 -17 5 -22 14 -45 20 -52 12 -15 -7 -56
-61 -129 -32 -43 -50 -82 -66 -142 -5 -18 -24 -16 -24 3 0 8 5 24 10 34 6 11
13 61 16 112 6 86 14 124 58 278 21 72 20 115 -4 185 -23 68 -23 65 -10 65 6
0 10 -8 10 -19z m-884 -77 c-4 -9 -9 -15 -11 -12 -3 3 -3 13 1 22 4 9 9 15 11
12 3 -3 3 -13 -1 -22z m325 -47 c-10 -9 -11 -8 -5 6 3 10 9 15 12 12 3 -3 0
-11 -7 -18z m84 3 c-3 -5 -11 -10 -16 -10 -6 0 -7 5 -4 10 3 6 11 10 16 10 6
0 7 -4 4 -10z m-428 -22 c-3 -8 -6 -5 -6 6 -1 11 2 17 5 13 3 -3 4 -12 1 -19z
m29 -4 c-4 -9 -9 -15 -11 -12 -3 3 -3 13 1 22 4 9 9 15 11 12 3 -3 3 -13 -1
-22z m-28 -67 c-11 -37 -29 -53 -23 -19 13 64 17 74 25 66 6 -6 5 -24 -2 -47z
m477 33 c-7 -23 4 -26 25 -7 12 10 12 9 0 -6 -7 -10 -19 -16 -27 -13 -7 3 -13
-1 -13 -11 0 -9 -3 -13 -6 -10 -4 4 -1 20 6 37 14 34 25 41 15 10z m525 -77
c-5 -22 -11 -55 -12 -72 -1 -18 -6 -35 -11 -38 -4 -3 -5 12 -1 34 4 21 7 67 7
102 0 57 2 61 13 39 9 -17 10 -36 4 -65z m-1616 -29 c-14 -18 -30 -31 -35 -28
-11 6 -4 20 24 51 31 35 40 16 11 -23z m66 39 c0 -11 -31 -56 -52 -77 -11 -10
-18 -33 -18 -54 0 -20 -5 -44 -11 -52 -7 -11 -8 3 -3 45 4 33 10 62 13 65 4 3
17 22 30 43 21 34 41 49 41 30z m70 -39 c-12 -18 -19 -38 -16 -43 9 -14 11
-199 3 -207 -4 -4 -7 22 -8 57 0 35 -2 73 -4 84 -11 55 -7 102 9 128 26 39 41
22 16 -19z m944 38 c4 -7 -49 -72 -60 -72 -3 0 4 13 15 29 12 16 21 34 21 40
0 13 16 15 24 3z m86 -7 c-14 -8 -29 -14 -35 -14 -5 0 1 6 15 14 14 8 30 14
35 14 6 0 -1 -6 -15 -14z m-1310 -10 c0 -19 -33 -65 -46 -65 -14 0 -15 3 -2
23 8 12 18 28 22 35 7 12 26 17 26 7z m56 -8 c19 7 18 0 -7 -41 -28 -49 -53
-51 -28 -3 12 22 12 22 -10 3 -30 -27 -34 -16 -10 23 14 24 23 31 31 23 6 -6
17 -8 24 -5z m1264 -7 c0 -5 -8 -10 -17 -10 -15 0 -16 2 -3 10 19 12 20 12 20
0z m-2006 -45 c5 -22 4 -26 -4 -15 -5 8 -10 24 -10 34 0 26 6 18 14 -19z m65
-155 c28 -102 36 -147 23 -135 -5 6 -15 39 -21 75 -7 36 -23 92 -36 125 -21
51 -21 56 -5 35 10 -13 28 -58 39 -100z m1846 30 c-3 -5 -14 -10 -23 -9 -14 0
-13 2 3 9 27 11 27 11 20 0z m195 1 c0 -5 -7 -12 -16 -15 -14 -5 -15 -4 -4 9
14 17 20 19 20 6z m10 -209 c62 -46 80 -164 30 -204 l-22 -18 28 -1 c51 -1 69
-13 69 -47 0 -23 -3 -28 -12 -20 -17 14 -16 -5 1 -54 12 -32 11 -40 -1 -55
-14 -17 -14 -17 -9 0 3 10 1 39 -5 65 -13 50 -29 78 -29 48 0 -16 -1 -16 -16
-2 -22 22 -34 20 -35 -6 -1 -22 -1 -22 -8 2 -4 14 -10 20 -13 15 -8 -12 2 -66
11 -61 3 2 6 -18 6 -44 0 -26 -3 -46 -7 -43 -5 2 -8 20 -8 39 0 36 -13 46 -24
18 -4 -9 -9 -14 -13 -11 -3 4 -1 12 4 19 6 7 12 32 15 55 3 36 0 43 -20 52
-13 6 -33 9 -45 6 -13 -4 -31 1 -42 10 -20 16 -19 16 5 10 19 -5 22 -4 10 4
-12 9 -9 11 14 11 39 0 30 6 -19 13 -28 5 -34 4 -20 -3 19 -8 18 -9 -4 -9 -14
-1 -32 6 -42 15 -17 15 -37 22 -71 23 -10 1 -18 5 -18 10 0 13 39 21 46 9 3
-5 13 -7 21 -4 8 3 23 1 34 -4 30 -16 22 -3 -8 15 l-28 16 35 -6 c32 -5 33 -4
15 9 -20 15 -20 15 0 17 17 1 16 2 -5 9 -14 4 -19 8 -12 9 6 1 12 5 12 11 0 6
-11 5 -27 -2 -38 -16 -39 -18 -23 -28 8 -6 11 -10 5 -10 -5 0 -62 -1 -125 -3
-68 -2 -101 0 -80 4 19 5 66 9 104 11 38 1 64 4 57 6 -19 6 -12 18 11 19 12 1
26 9 30 18 48 85 159 118 228 67z m-1670 -53 c0 -4 -4 -11 -10 -14 -15 -9 -12
-41 4 -54 12 -10 15 -6 21 19 4 16 10 30 13 30 4 0 23 -22 42 -48 19 -25 63
-78 98 -116 54 -58 61 -71 47 -78 -13 -8 -38 12 -121 91 -75 73 -111 101 -129
101 -29 0 -30 3 -9 36 9 13 14 27 11 30 -3 3 -13 -8 -22 -25 -8 -17 -20 -31
-26 -31 -6 0 -9 3 -7 8 28 57 32 61 59 60 16 -1 29 -5 29 -9z m1396 -4 c-11
-8 -28 -15 -39 -15 -12 0 -16 -4 -11 -12 4 -7 4 -10 0 -7 -4 4 -23 3 -42 -1
-56 -13 -39 3 29 27 74 25 89 27 63 8z m-203 -82 c-7 -2 -19 -2 -25 0 -7 3 -2
5 12 5 14 0 19 -2 13 -5z m-1223 -18 c0 -13 -49 -73 -50 -60 0 6 7 21 16 33 9
13 14 26 11 28 -3 3 -13 -8 -23 -25 -10 -17 -22 -31 -26 -31 -13 0 -10 10 12
40 20 28 60 38 60 15z m1625 -160 c-14 -21 -25 -35 -25 -31 0 13 45 85 48 77
2 -5 -9 -26 -23 -46z m-325 15 c12 -8 13 -13 3 -29 -8 -13 -9 -21 -2 -23 7 -2
6 -8 -3 -15 -10 -9 -19 -7 -38 7 -23 17 -23 19 -7 44 19 28 25 30 47 16z m427
-12 c-3 -8 -6 -5 -6 6 -1 11 2 17 5 13 3 -3 4 -12 1 -19z m22 -32 c-5 -6 -16
-20 -24 -31 -14 -19 -15 -18 -9 10 9 36 26 57 36 42 3 -5 2 -15 -3 -21z m-441
-59 c7 0 9 -3 5 -7 -11 -10 -83 0 -83 11 0 5 15 6 33 3 17 -3 38 -7 45 -7z
m-778 -37 c0 -5 -7 -10 -15 -10 -8 0 -15 5 -15 10 0 6 7 10 15 10 8 0 15 -4
15 -10z m-44 -65 c-16 -25 -36 -33 -36 -16 0 4 10 21 22 36 26 33 38 16 14
-20z m-46 13 c0 -10 -17 -9 -50 2 -21 7 -20 8 12 7 21 -1 38 -5 38 -9z m1234
-78 c22 0 126 -73 126 -88 0 -9 -9 -4 -21 12 -11 14 -26 26 -34 26 -7 0 -18 7
-25 15 -7 8 -27 17 -46 21 -19 3 -37 11 -41 17 -4 7 0 8 11 4 10 -4 23 -7 30
-7z m95 -110 c0 -9 -6 -4 -14 10 -19 33 -19 49 0 24 8 -10 14 -26 14 -34z
m-1335 -58 c-5 -14 -3 -14 10 2 9 11 19 17 22 13 8 -8 -45 -72 -60 -72 -12 0
-9 40 6 68 11 22 29 13 22 -11z m66 -22 c-20 -39 -44 -59 -56 -47 -9 9 48 87
63 87 10 0 9 -9 -7 -40z m140 -4 c0 -8 -4 -18 -10 -21 -5 -3 -10 -15 -10 -25
0 -15 -6 -18 -27 -15 -16 2 -31 4 -35 4 -14 2 -8 34 9 53 20 22 73 25 73 4z
m910 -61 c0 -19 -4 -37 -10 -40 -6 -4 -7 6 -4 25 8 35 -3 40 -16 8 -7 -18 -9
-19 -9 -5 -1 22 20 57 31 51 4 -3 8 -20 8 -39z m275 23 c7 -7 -3 -9 -30 -4
-22 3 -49 6 -60 7 l-20 0 20 9 c23 10 75 3 90 -12z m-801 -103 c22 -13 73 -36
111 -50 56 -21 74 -24 88 -15 11 6 22 9 25 6 3 -3 0 -6 -6 -6 -7 0 -12 -5 -12
-11 0 -5 4 -8 9 -4 5 3 12 1 16 -5 4 -6 18 -4 38 6 27 12 29 12 13 0 -10 -8
-15 -19 -12 -25 15 -23 -204 50 -277 92 -46 27 -117 99 -117 118 0 7 18 -9 41
-35 23 -25 60 -57 83 -71z m611 75 c3 -5 1 -10 -4 -10 -6 0 -11 5 -11 10 0 6
2 10 4 10 3 0 8 -4 11 -10z m-1100 -60 c4 -6 -10 -10 -37 -9 -40 1 -41 2 -13
9 43 11 43 11 50 0z m55 -20 c13 -9 13 -10 0 -10 -8 0 -22 5 -30 10 -13 9 -13
10 0 10 8 0 22 -5 30 -10z m524 -111 c-30 -12 -37 -10 -24 5 6 8 19 12 27 9
14 -6 14 -8 -3 -14z m366 -24 c0 -8 -10 -19 -21 -26 -22 -11 -20 -2 6 28 13
16 15 16 15 -2z m40 -5 c0 -5 -2 -10 -4 -10 -3 0 -8 5 -11 10 -3 6 -1 10 4 10
6 0 11 -4 11 -10z m-1960 -14 c0 -2 -7 -9 -15 -16 -13 -11 -14 -10 -9 4 5 14
24 23 24 12z m1870 -76 c0 -5 -2 -10 -4 -10 -3 0 -8 5 -11 10 -3 6 -1 10 4 10
6 0 11 -4 11 -10z m-315 -51 c7 -7 0 -8 -20 -3 -16 3 -34 11 -40 17 -7 6 0 7
20 3 17 -4 35 -12 40 -17z m-1545 -34 c-7 -9 -15 -13 -18 -10 -3 2 1 11 8 20
7 9 15 13 18 10 3 -2 -1 -11 -8 -20z m-273 -87 c-42 -11 -67 -48 -67 -95 l1
-28 24 30 c14 17 25 26 25 20 -1 -5 -9 -20 -19 -33 -20 -23 -54 -21 -44 4 3 8
0 14 -6 14 -17 0 -25 -28 -13 -43 13 -15 -1 -43 -16 -33 -25 15 -20 49 13 82
18 18 36 43 40 54 8 24 37 39 75 38 19 0 16 -3 -13 -10z m1810 -4 c-3 -3 -12
-4 -19 -1 -8 3 -5 6 6 6 11 1 17 -2 13 -5z m103 -84 c0 -5 -5 -10 -11 -10 -5
0 -7 5 -4 10 3 6 8 10 11 10 2 0 4 -4 4 -10z m-900 -600 c0 -5 -5 -10 -11 -10
-5 0 -7 5 -4 10 3 6 8 10 11 10 2 0 4 -4 4 -10z"/>
<path d="M1495 3082 c-11 -9 -36 -37 -55 -62 -19 -25 -44 -56 -57 -69 -32 -34
-44 -85 -33 -140 13 -60 40 -131 49 -131 4 0 13 24 20 54 7 30 25 74 41 98 16
24 30 54 30 68 0 14 9 59 20 100 28 107 26 117 -15 82z"/>
<path d="M1756 3020 c-43 -35 -89 -81 -102 -102 -26 -40 -53 -153 -48 -198 1
-14 3 -58 4 -99 l2 -74 29 49 c15 27 33 74 39 104 29 147 75 261 131 324 55
63 25 60 -55 -4z"/>
<path d="M1356 2453 c8 -56 35 -143 57 -183 29 -52 79 -120 89 -120 15 0 8 22
-36 103 -24 45 -51 109 -61 142 -20 71 -27 87 -43 93 -7 2 -9 -9 -6 -35z"/>
<path d="M2050 2490 c0 -5 5 -10 10 -10 6 0 10 5 10 10 0 6 -4 10 -10 10 -5 0
-10 -4 -10 -10z"/>
<path d="M2105 2410 c6 -19 4 -22 -9 -17 -9 4 -16 3 -16 -1 0 -14 24 -32 42
-32 20 0 24 -16 6 -22 -19 -7 20 -25 67 -32 l40 -6 -40 13 -39 12 28 23 c16
12 24 22 19 22 -5 0 -18 -9 -28 -20 -21 -23 -44 -28 -25 -5 10 12 8 16 -13 24
-18 7 -24 15 -20 29 2 11 -1 23 -7 27 -9 5 -10 1 -5 -15z"/>
<path d="M2697 2378 c-21 -21 -25 -35 -26 -84 l0 -59 20 25 c11 14 30 45 41
69 18 39 18 45 5 58 -14 14 -18 13 -40 -9z"/>
<path d="M2254 2379 c-18 -6 -18 -7 -1 -14 21 -9 23 -27 2 -19 -10 4 -15 0
-15 -14 0 -18 7 -20 78 -21 42 -1 108 -8 145 -15 81 -15 76 -6 -18 43 -63 32
-159 52 -191 40z"/>
<path d="M2075 2360 c10 -11 20 -20 23 -20 3 0 -3 9 -13 20 -10 11 -20 20 -23
20 -3 0 3 -9 13 -20z"/>
<path d="M2803 2300 c-12 -5 -26 -18 -32 -29 -10 -18 -9 -19 21 -10 18 5 48 9
66 9 30 0 32 2 22 20 -11 21 -40 25 -77 10z"/>
<path d="M2253 2280 c-93 -8 -105 -19 -20 -19 36 1 75 -2 86 -6 12 -3 26 -3
33 2 7 4 22 8 33 10 11 1 14 -1 8 -3 -26 -11 -12 -24 25 -24 51 0 112 11 112
20 0 7 -76 19 -160 24 -25 2 -78 0 -117 -4z"/>
<path d="M1842 2243 c1 -42 12 -73 20 -57 2 5 -1 29 -8 54 l-12 45 0 -42z"/>
<path d="M2038 2273 c7 -3 16 -2 19 1 4 3 -2 6 -13 5 -11 0 -14 -3 -6 -6z"/>
<path d="M1983 2263 c-18 -6 -16 -33 2 -33 8 0 15 5 15 11 0 5 5 7 10 4 6 -3
10 -2 10 3 0 12 -21 20 -37 15z"/>
<path d="M2550 2248 c0 -7 -3 -23 -6 -35 -5 -18 -2 -23 12 -24 14 -1 12 -3 -6
-8 -30 -8 -40 -41 -13 -41 21 0 80 87 67 100 -18 16 -54 22 -54 8z"/>
<path d="M2125 2243 c49 -2 92 -8 95 -12 7 -12 137 -24 144 -13 3 5 -9 9 -27
10 -18 1 -46 6 -63 11 -17 5 -77 8 -135 8 l-104 -1 90 -3z"/>
<path d="M2415 2220 c-56 -13 -76 -23 -72 -34 2 -6 0 -19 -5 -30 -8 -14 -7
-17 3 -14 8 3 16 13 19 24 4 16 15 19 74 21 64 2 96 14 96 34 0 10 -71 10
-115 -1z"/>
<path d="M2625 2220 c3 -5 8 -10 11 -10 2 0 4 5 4 10 0 6 -5 10 -11 10 -5 0
-7 -4 -4 -10z"/>
<path d="M2235 2200 c-3 -6 -3 -19 0 -31 7 -20 -11 -79 -24 -79 -3 0 -23 11
-44 25 -20 14 -37 22 -37 18 0 -14 74 -49 107 -51 24 -2 33 3 38 18 3 11 11
20 17 20 5 0 8 6 5 13 -2 6 0 20 5 31 6 10 6 22 1 26 -15 13 -62 20 -68 10z"/>
<path d="M2653 2203 c-7 -2 -13 -11 -13 -19 0 -22 54 -14 58 9 3 17 -17 22
-45 10z"/>
<path d="M2055 2185 l-30 -14 30 6 c17 3 34 10 40 14 14 13 -5 10 -40 -6z"/>
<path d="M2141 2189 c-40 -16 -18 -19 29 -4 31 9 37 14 20 14 -14 0 -36 -5
-49 -10z"/>
<path d="M1891 2186 c2 -2 22 -6 44 -9 27 -4 35 -3 25 3 -14 9 -79 15 -69 6z"/>
<path d="M2581 2154 c-26 -44 -27 -54 -1 -26 11 11 27 25 36 30 9 5 14 14 10
21 -12 19 -23 13 -45 -25z"/>
<path d="M2706 2171 l-19 -21 59 1 c32 1 70 4 84 8 l25 8 -30 6 c-90 19 -100
19 -119 -2z"/>
<path d="M2437 2173 c-40 -4 -49 -8 -62 -34 l-16 -30 28 7 c107 27 118 31 121
47 2 10 -2 16 -10 15 -7 -1 -34 -3 -61 -5z"/>
<path d="M2865 2160 c-8 -13 25 -13 45 0 12 8 9 10 -12 10 -15 0 -30 -4 -33
-10z"/>
<path d="M2635 2150 c-19 -8 -19 -9 2 -9 12 -1 25 4 28 9 7 12 -2 12 -30 0z"/>
<path d="M2484 2088 c-15 -21 -31 -38 -35 -38 -5 0 -9 -7 -9 -16 0 -27 69 -10
96 23 12 15 20 30 17 33 -2 3 -13 -6 -23 -20 -11 -14 -20 -20 -20 -15 0 6 9
21 20 35 25 32 25 36 0 36 -12 0 -31 -16 -46 -38z"/>
<path d="M2590 2115 c-13 -16 -8 -18 28 -9 12 4 22 10 22 15 0 15 -37 10 -50
-6z"/>
<path d="M2315 2109 c-11 -17 1 -21 15 -4 8 9 8 15 2 15 -6 0 -14 -5 -17 -11z"/>
<path d="M2404 2107 c-23 -7 -48 -17 -56 -24 -8 -7 -24 -10 -36 -6 -12 3 -22
1 -22 -5 0 -9 73 -32 104 -32 17 0 86 57 86 71 0 11 -24 10 -76 -4z"/>
<path d="M2065 2082 c-16 -12 -16 -30 1 -36 12 -4 15 -2 10 9 -4 10 1 15 15
15 11 0 17 5 14 10 -7 12 -26 13 -40 2z"/>
<path d="M2559 2063 c-13 -15 -12 -15 9 -4 23 12 28 21 13 21 -5 0 -15 -7 -22
-17z"/>
<path d="M2158 2063 c12 -2 22 -8 22 -13 0 -5 8 -6 17 -3 15 6 15 7 -3 14 -10
4 -28 7 -39 7 -17 -1 -16 -1 3 -5z"/>
<path d="M1968 2044 c12 -8 32 -13 45 -11 19 4 18 4 -5 6 -15 0 -30 6 -33 11
-3 6 -11 10 -18 10 -6 0 -1 -7 11 -16z"/>
<path d="M2100 2050 c0 -5 7 -7 15 -4 8 4 15 8 15 10 0 2 -7 4 -15 4 -8 0 -15
-4 -15 -10z"/>
<path d="M2124 2033 c-7 -2 -10 -13 -7 -23 4 -15 11 -18 37 -14 64 11 74 14
79 28 5 11 -4 14 -38 13 -24 -1 -41 -5 -38 -9 2 -5 0 -8 -6 -8 -5 0 -11 4 -13
9 -1 4 -8 6 -14 4z"/>
<path d="M2241 2016 l-22 -24 50 -12 c28 -7 54 -16 57 -21 10 -17 59 -9 72 12
7 12 12 22 10 24 -2 2 -28 10 -58 18 -30 8 -62 18 -70 21 -10 4 -25 -3 -39
-18z"/>
<path d="M2090 2021 c0 -6 -21 -12 -47 -14 -48 -3 -48 -3 9 -5 47 -2 56 1 52
13 -7 17 -14 20 -14 6z"/>
<path d="M2480 2000 c0 -5 5 -10 10 -10 6 0 10 5 10 10 0 6 -4 10 -10 10 -5 0
-10 -4 -10 -10z"/>
<path d="M2078 1983 c6 -2 18 -2 25 0 6 3 1 5 -13 5 -14 0 -19 -2 -12 -5z"/>
<path d="M2008 1973 c12 -2 30 -2 40 0 9 3 -1 5 -23 4 -22 0 -30 -2 -17 -4z"/>
<path d="M2415 1959 c-4 -6 -5 -12 -2 -15 7 -7 37 7 37 17 0 13 -27 11 -35 -2z"/>
<path d="M2565 1960 c-19 -7 -19 -8 -2 -15 22 -9 86 0 101 15 12 12 -69 13
-99 0z"/>
<path d="M2620 1830 c0 -16 4 -30 9 -30 12 0 24 37 16 50 -12 20 -25 10 -25
-20z"/>
<path d="M2877 1803 c-4 -3 -7 -11 -7 -17 0 -6 5 -5 12 2 6 6 9 14 7 17 -3 3
-9 2 -12 -2z"/>
<path d="M2645 1670 c-3 -5 -1 -10 4 -10 6 0 11 5 11 10 0 6 -2 10 -4 10 -3 0
-8 -4 -11 -10z"/>
<path d="M2790 1630 c0 -5 4 -10 9 -10 6 0 13 5 16 10 3 6 -1 10 -9 10 -9 0
-16 -4 -16 -10z"/>
<path d="M2850 1590 c8 -5 26 -10 40 -10 20 0 22 2 10 10 -8 5 -26 10 -40 10
-20 0 -22 -2 -10 -10z"/>
<path d="M3595 2620 c-17 -28 -23 -69 -11 -85 10 -14 14 -12 29 20 10 21 15
46 12 56 -7 21 -20 25 -30 9z"/>
<path d="M3537 2551 c-15 -74 0 -110 24 -58 8 17 7 32 -3 58 l-14 34 -7 -34z"/>
<path d="M3351 2202 c9 -14 9 -23 0 -38 -11 -17 -11 -17 -6 6 6 24 5 24 -9 6
-13 -16 -13 -22 -3 -28 19 -12 24 -10 37 21 13 32 7 51 -16 51 -11 0 -12 -4
-3 -18z"/>
<path d="M3278 2123 c12 -2 32 -2 45 0 12 2 2 4 -23 4 -25 0 -35 -2 -22 -4z"/>
<path d="M2905 2010 c-3 -5 -1 -10 4 -10 6 0 11 5 11 10 0 6 -2 10 -4 10 -3 0
-8 -4 -11 -10z"/>
<path d="M2220 1555 c-7 -9 -11 -18 -8 -20 3 -3 11 1 18 10 7 9 11 18 8 20 -3
3 -11 -1 -18 -10z"/>
<path d="M2538 3923 c7 -3 16 -2 19 1 4 3 -2 6 -13 5 -11 0 -14 -3 -6 -6z"/>
<path d="M1645 2070 c-7 -12 2 -30 16 -30 5 0 9 9 9 20 0 21 -15 27 -25 10z"/>
<path d="M1775 1949 c-4 -6 -5 -12 -2 -15 2 -3 7 2 10 11 7 17 1 20 -8 4z"/>
<path d="M1818 1892 c13 -17 28 -35 34 -39 7 -3 2 8 -10 25 -13 17 -28 35 -34
39 -7 3 -2 -8 10 -25z"/>
<path d="M1700 1880 c0 -5 5 -10 10 -10 6 0 10 5 10 10 0 6 -4 10 -10 10 -5 0
-10 -4 -10 -10z"/>
<path d="M1904 1825 c15 -41 25 -110 15 -113 -5 -2 -16 -20 -24 -39 -14 -33
-14 -38 2 -55 17 -19 18 -19 36 3 25 31 34 15 13 -27 -13 -28 -14 -39 -5 -50
7 -8 9 -17 5 -21 -3 -3 -6 -1 -6 5 0 7 -4 12 -9 12 -5 0 -7 -9 -4 -20 4 -14 0
-20 -11 -20 -22 0 -31 26 -18 55 9 20 5 31 -38 86 -32 42 -50 76 -53 99 -3 33
-4 33 -5 -7 -1 -24 -6 -43 -10 -43 -4 0 -13 -14 -19 -31 -10 -26 -10 -29 3
-19 11 10 14 9 14 -4 0 -13 5 -16 20 -11 11 3 20 2 20 -3 0 -5 11 -26 25 -45
20 -30 21 -35 5 -25 -10 7 -24 22 -31 35 -7 13 -16 23 -20 23 -14 0 -17 -29
-4 -40 8 -6 25 -31 39 -55 16 -27 39 -49 63 -60 21 -10 48 -27 61 -38 28 -26
28 -9 1 38 -12 20 -19 39 -16 42 4 3 11 -6 16 -21 6 -14 13 -26 17 -26 13 0
-2 252 -16 260 -7 4 -10 13 -6 19 8 13 -26 82 -50 102 -16 13 -17 12 -10 -6z
m23 -182 c-3 -10 -5 -2 -5 17 0 19 2 27 5 18 2 -10 2 -26 0 -35z m-107 16 c0
-24 -23 -21 -28 4 -2 10 3 17 12 17 10 0 16 -9 16 -21z"/>
<path d="M1670 1824 c0 -3 10 -14 23 -25 14 -12 18 -21 11 -26 -6 -5 -16 -17
-22 -28 -14 -25 -16 -1 -2 26 6 10 7 19 3 19 -5 0 -14 -12 -20 -27 -6 -16 -18
-45 -27 -65 -9 -21 -12 -38 -7 -38 5 0 12 13 16 30 4 16 11 33 17 36 9 6 6
-12 -10 -55 -3 -8 -1 -12 5 -8 6 4 14 19 18 34 3 15 15 40 27 55 19 27 19 30
4 53 -15 23 -36 34 -36 19z"/>
<path d="M1729 1703 c-14 -16 -39 -67 -39 -78 0 -3 6 -5 13 -5 12 0 53 87 45
96 -3 2 -11 -4 -19 -13z"/>
<path d="M1610 1648 c0 -3 7 -21 15 -39 10 -24 14 -28 14 -14 0 11 -6 29 -14
39 -8 11 -15 17 -15 14z"/>
<path d="M1645 1640 c3 -5 8 -10 11 -10 2 0 4 5 4 10 0 6 -5 10 -11 10 -5 0
-7 -4 -4 -10z"/>
<path d="M1723 1585 c-9 -24 1 -27 15 -5 8 13 8 20 2 20 -6 0 -13 -7 -17 -15z"/>
<path d="M1135 1559 c-11 -16 -1 -19 13 -3 7 8 8 14 3 14 -5 0 -13 -5 -16 -11z"/>
<path d="M1559 1554 c-8 -10 -21 -13 -38 -9 -18 4 -9 -5 28 -31 51 -35 55 -36
68 -18 7 10 13 29 12 43 0 25 -1 24 -12 -6 -7 -17 -16 -35 -21 -40 -5 -5 -7
-1 -3 8 4 12 1 16 -13 12 -26 -7 -35 15 -14 38 9 10 15 19 12 19 -3 0 -11 -7
-19 -16z"/>
<path d="M1752 1529 c-20 -34 -22 -48 -17 -112 11 -151 20 -235 30 -312 2 -11
4 -28 4 -38 1 -13 7 -16 25 -11 13 3 40 1 60 -4 34 -10 37 -9 50 16 18 36 56
164 56 191 0 11 -3 21 -8 21 -10 0 -52 93 -52 115 0 18 -30 75 -40 75 -6 0 3
-76 15 -130 3 -14 -1 -10 -9 10 -8 19 -15 47 -15 61 -1 41 -30 115 -54 137
l-22 21 -23 -40z m123 -369 c-3 -5 -11 -10 -16 -10 -6 0 -7 5 -4 10 3 6 11 10
16 10 6 0 7 -4 4 -10z m-47 -31 c-15 -4 -31 -10 -37 -14 -6 -3 -11 -4 -11 -1
0 10 55 34 65 28 5 -3 -3 -9 -17 -13z"/>
<path d="M1595 1540 c3 -5 8 -10 11 -10 2 0 4 5 4 10 0 6 -5 10 -11 10 -5 0
-7 -4 -4 -10z"/>
<path d="M1682 1528 c-17 -17 -15 -24 8 -24 11 0 20 6 20 13 0 18 -15 24 -28
11z"/>
<path d="M1488 1461 c-10 -20 -33 -54 -53 -75 -48 -52 -44 -59 5 -11 22 21 40
43 40 49 0 5 7 17 16 27 9 10 14 24 12 32 -2 9 -10 -1 -20 -22z"/>
<path d="M1528 1460 c2 -22 8 -43 14 -46 6 -4 7 9 3 33 -6 37 -5 38 11 16 9
-13 21 -23 26 -23 5 0 0 14 -12 30 -30 43 -46 39 -42 -10z"/>
<path d="M2010 1464 c0 -41 31 -87 48 -70 4 4 -3 16 -16 26 -13 11 -17 20 -11
22 8 3 7 13 -4 33 l-16 30 -1 -41z"/>
<path d="M1701 1475 c0 -11 -15 -38 -33 -59 -47 -57 -45 -67 39 -228 8 -16 18
-28 22 -28 6 0 0 98 -18 260 -5 41 -9 66 -10 55z"/>
<path d="M1913 1407 c7 -42 36 -107 48 -107 4 0 11 16 15 35 7 39 -11 76 -47
96 -21 11 -22 10 -16 -24z"/>
<path d="M1560 1410 c-7 -13 -7 -20 -1 -20 6 0 15 9 21 20 7 13 7 20 1 20 -6
0 -15 -9 -21 -20z"/>
<path d="M1504 1400 c0 -11 4 -20 8 -20 4 0 8 9 8 20 0 11 -4 20 -8 20 -4 0
-8 -9 -8 -20z"/>
<path d="M1438 1347 c-42 -44 -46 -52 -23 -43 36 14 -7 -48 -45 -64 -27 -11
-49 -40 -31 -40 5 0 12 6 14 13 3 7 6 7 6 1 1 -6 -8 -19 -19 -29 -25 -22 -25
-32 -2 -38 15 -3 15 -5 -3 -12 -41 -17 -47 -27 -25 -42 11 -8 25 -11 30 -8 6
3 10 0 11 -7 0 -7 4 -3 9 10 5 12 20 27 32 32 15 6 18 9 7 9 -9 1 -22 -6 -29
-14 -7 -8 -19 -15 -28 -15 -12 0 -10 6 8 25 18 19 21 27 11 39 -10 11 -6 18
18 35 17 12 28 27 25 34 -2 7 13 30 33 51 33 34 35 38 14 31 -26 -8 -23 3 12
42 11 13 19 25 16 27 -2 1 -21 -15 -41 -37z m-48 -127 c0 -5 -5 -10 -11 -10
-5 0 -7 5 -4 10 3 6 8 10 11 10 2 0 4 -4 4 -10z"/>
<path d="M1537 1373 c-10 -9 -9 -23 2 -23 5 0 11 7 15 15 5 15 -5 20 -17 8z"/>
<path d="M1500 1356 c0 -8 -6 -17 -12 -20 -10 -5 -10 -7 1 -12 10 -5 0 -19
-35 -50 -27 -24 -44 -43 -39 -44 18 0 92 84 99 113 4 16 2 27 -4 27 -5 0 -10
-6 -10 -14z"/>
<path d="M1554 1342 c-11 -16 -52 -57 -91 -92 -50 -42 -73 -69 -73 -83 1 -20
2 -20 13 4 7 15 42 52 78 82 63 53 106 104 96 113 -2 3 -13 -8 -23 -24z"/>
<path d="M1601 1341 c-1 -30 -79 -149 -121 -185 -33 -27 -37 -34 -17 -33 6 1
38 -7 71 -17 63 -19 167 -19 187 1 8 8 -1 29 -32 75 -24 34 -53 90 -66 123
-14 40 -22 52 -22 36z"/>
<path d="M1360 1265 c-7 -9 -11 -18 -8 -20 3 -3 11 1 18 10 7 9 11 18 8 20 -3
3 -11 -1 -18 -10z"/>
<path d="M1406 1080 c-22 -17 -35 -30 -30 -30 5 0 1 -6 -8 -13 -14 -11 -15
-20 -7 -55 5 -23 8 -45 7 -49 -6 -25 47 -189 70 -215 8 -10 11 -18 6 -18 -5 0
-18 13 -27 30 l-18 29 -36 -40 -36 -40 38 -39 c22 -22 34 -40 28 -40 -6 0 -26
14 -43 31 -17 17 -33 29 -35 27 -8 -8 -9 -221 -1 -278 14 -97 56 -253 86 -317
l29 -63 143 0 143 0 22 43 c22 44 55 237 58 337 1 30 -2 100 -6 155 -4 55 -9
126 -11 158 -1 31 -5 57 -9 57 -12 0 -49 -99 -69 -185 -11 -49 -29 -121 -40
-160 -18 -64 -20 -66 -15 -23 2 26 13 73 24 105 22 68 33 133 22 133 -4 0 -18
-19 -31 -41 -29 -48 -101 -132 -108 -125 -2 3 13 22 33 43 20 21 45 54 55 73
10 19 27 44 39 54 12 11 38 54 59 95 l38 76 -10 83 c-9 80 -9 82 -36 82 -39 0
-124 27 -151 49 -26 19 -129 38 -129 23 0 -5 21 -19 48 -31 31 -14 37 -19 19
-16 -33 7 -136 74 -116 76 8 1 18 1 23 0 5 -1 37 -4 70 -7 105 -8 146 -15 146
-24 0 -5 -13 -5 -30 0 -33 9 -41 -3 -12 -19 26 -14 125 -37 143 -34 11 3 14
12 11 33 -4 26 -8 30 -38 30 -43 0 -152 25 -215 50 -27 11 -51 20 -52 20 -1 0
-20 -14 -41 -30z m286 -822 c-6 -6 -12 -6 -17 3 -5 8 -4 10 3 5 7 -4 12 0 13
11 0 12 2 13 6 5 3 -8 1 -18 -5 -24z"/>
<path d="M1222 1061 c-17 -21 -28 -41 -25 -45 3 -3 12 2 18 12 54 79 58 96 7
33z"/>
<path d="M1685 1082 l-50 -16 40 -7 c64 -12 75 -11 75 10 0 28 -9 30 -65 13z"/>
<path d="M1263 1048 c-23 -26 -57 -88 -50 -94 2 -2 12 15 23 37 10 23 32 50
49 60 17 11 23 19 14 19 -8 0 -25 -10 -36 -22z"/>
<path d="M1180 1050 c0 -5 5 -10 10 -10 6 0 10 5 10 10 0 6 -4 10 -10 10 -5 0
-10 -4 -10 -10z"/>
<path d="M1800 1042 c0 -12 69 -37 78 -28 9 10 -10 23 -45 31 -20 4 -33 3 -33
-3z"/>
<path d="M1770 1006 c0 -32 2 -34 42 -39 76 -10 80 18 8 50 l-50 22 0 -33z"/>
<path d="M1321 1014 c0 -12 -21 -40 -46 -63 -31 -28 -43 -46 -39 -58 4 -12 3
-14 -3 -6 -12 16 -41 -7 -47 -38 -3 -13 -9 -38 -14 -55 -9 -29 -7 -32 53 -82
35 -29 65 -52 68 -52 2 0 14 63 27 139 18 111 21 149 12 188 -5 26 -10 38 -11
27z"/>
<path d="M1085 981 c-2 -5 4 -11 15 -14 11 -3 20 -2 20 3 0 12 -28 21 -35 11z"/>
<path d="M1778 885 c2 -36 7 -65 11 -65 8 0 61 105 61 120 0 6 -17 10 -37 10
l-38 0 3 -65z"/>
<path d="M1336 805 c-24 -133 -22 -138 28 -67 l27 40 -19 58 -19 59 -17 -90z"/>
<path d="M926 867 c-17 -13 -17 -15 8 -43 l25 -29 1 43 c0 45 -6 50 -34 29z
m24 -28 c0 -6 -4 -7 -10 -4 -5 3 -10 11 -10 16 0 6 5 7 10 4 6 -3 10 -11 10
-16z"/>
<path d="M980 840 c0 -19 3 -21 12 -12 9 9 9 15 0 24 -9 9 -12 7 -12 -12z"/>
<path d="M876 842 c-3 -6 1 -13 10 -16 23 -9 28 -2 10 13 -8 7 -17 8 -20 3z"/>
<path d="M1102 810 c-13 -11 -22 -27 -20 -36 3 -14 7 -13 31 6 15 12 27 28 27
36 0 19 -10 17 -38 -6z"/>
<path d="M657 785 c-31 -12 -68 -30 -81 -38 -97 -64 -305 -279 -411 -424 -31
-43 -81 -109 -111 -148 -50 -64 -54 -74 -54 -122 l0 -53 59 0 c53 0 61 3 67
23 5 12 8 24 9 27 1 10 32 50 36 46 2 -2 5 6 5 18 2 30 130 225 149 226 5 0 4
-5 -3 -12 -7 -7 -12 -19 -12 -27 0 -11 4 -10 14 5 9 11 12 30 9 47 -4 21 -2
27 11 27 10 0 14 -4 11 -10 -3 -5 -1 -10 5 -10 7 0 9 8 5 19 -4 13 1 27 14 40
26 26 26 26 26 -4 0 -14 -3 -25 -7 -25 -5 0 -8 -9 -8 -20 0 -18 3 -19 21 -9
17 9 20 8 15 -3 -3 -7 -9 -21 -12 -30 -7 -19 -24 -25 -24 -9 0 5 -7 11 -15 15
-13 5 -13 2 1 -19 13 -20 14 -24 2 -20 -8 3 -23 -4 -34 -16 -17 -20 -17 -22
-1 -16 9 4 17 2 17 -3 0 -6 -5 -10 -12 -10 -6 0 -8 -3 -4 -7 4 -5 15 1 23 12
16 20 16 20 8 0 -20 -53 -14 -55 15 -5 18 30 39 63 47 72 9 9 12 22 7 30 -4 7
-3 10 1 5 5 -4 33 16 62 45 39 38 53 60 53 80 0 15 -5 28 -10 28 -6 0 -8 -10
-4 -24 5 -19 -2 -32 -29 -60 -27 -26 -37 -31 -41 -20 -3 7 -14 14 -24 14 -10
0 -23 5 -29 11 -13 13 -5 49 11 49 6 0 16 10 21 23 6 12 16 21 23 20 7 -2 12
3 12 10 0 8 11 24 25 37 l26 24 -28 14 c-25 14 -26 15 -8 28 10 8 22 14 27 14
4 0 8 5 8 11 0 5 -4 7 -10 4 -5 -3 -10 1 -10 9 0 9 9 16 20 16 23 0 27 -29 8
-48 -9 -9 -9 -15 -1 -23 8 -8 22 -4 52 17 22 16 41 35 41 42 0 6 5 12 10 12
18 0 55 44 52 63 -2 10 2 25 9 33 20 24 6 24 -54 -1z m-208 -377 c10 3 11 -2
6 -19 -5 -18 -4 -20 4 -9 5 8 13 12 16 9 3 -4 -1 -12 -9 -18 -11 -10 -18 -8
-35 10 -12 13 -21 30 -21 38 1 14 2 14 13 0 7 -9 18 -14 26 -11z m-203 -89
c12 -20 -29 -89 -52 -89 -23 0 -40 25 -24 35 6 4 10 1 10 -5 0 -7 6 -10 13 -7
6 2 11 11 9 21 -2 10 4 16 15 16 14 0 15 2 4 9 -7 5 -10 14 -7 20 9 14 23 14
32 0z"/>
<path d="M877 784 c-3 -3 -22 -6 -42 -6 l-36 0 35 -19 c20 -10 38 -19 41 -19
11 0 4 19 -7 23 -7 2 -3 2 10 0 12 -2 22 1 22 6 0 12 -15 22 -23 15z"/>
<path d="M810 736 c0 -20 13 -27 29 -16 11 6 9 10 -8 19 -17 10 -21 9 -21 -3z"/>
<path d="M915 728 c-6 -15 36 -98 60 -118 8 -7 15 -17 15 -23 0 -5 -9 -2 -20
8 -12 11 -20 13 -20 6 0 -7 -4 -10 -10 -6 -5 3 -7 12 -4 19 5 13 -31 96 -41
96 -19 0 -113 -82 -150 -132 l-46 -61 35 -23 c19 -13 48 -24 65 -24 16 0 32
-4 35 -9 8 -13 -54 -7 -82 8 -21 11 -21 10 -15 -21 3 -18 13 -41 21 -50 19
-23 4 -23 -28 -1 -23 16 -23 16 -15 -3 4 -10 16 -55 27 -98 10 -44 27 -95 37
-115 11 -20 22 -46 24 -58 17 -79 -52 64 -78 160 -25 93 -51 147 -74 155 -11
4 -12 0 -6 -14 5 -11 11 -87 14 -169 5 -136 9 -156 32 -200 l25 -50 248 -3
248 -2 -5 22 c-2 13 -12 63 -21 113 -29 157 -36 179 -80 245 -44 66 -58 98
-96 225 -20 68 -37 97 -72 124 -15 11 -19 11 -23 -1z m-40 -102 c10 -28 10
-33 -1 -29 -8 3 -14 13 -14 23 0 10 -3 27 -7 37 -3 10 -2 15 2 10 5 -4 14 -23
20 -41z m-14 -72 c-5 -16 -10 -21 -10 -12 -1 18 10 51 15 45 2 -1 -1 -16 -5
-33z m-30 -131 c13 -16 12 -17 -3 -4 -10 7 -18 15 -18 17 0 8 8 3 21 -13z m38
-59 c62 -18 65 -28 4 -11 -49 13 -59 7 -43 -22 6 -12 7 -21 1 -21 -5 0 -12 11
-15 25 -4 14 -13 25 -21 25 -8 0 -15 5 -15 10 0 14 28 12 89 -6z m11 -235 c12
-7 11 -8 -5 -9 -31 0 -65 11 -65 21 0 10 45 2 70 -12z"/>
<path d="M1000 729 c0 -6 11 -56 26 -111 26 -103 73 -220 93 -232 16 -10 14
-3 -14 64 -13 32 -32 105 -41 162 -11 64 -23 108 -32 116 -19 15 -32 16 -32 1z"/>
<path d="M1156 731 c-4 -5 3 -47 14 -93 10 -45 26 -139 35 -208 17 -131 62
-328 89 -392 14 -34 20 -38 51 -38 30 0 35 3 35 24 0 14 -4 36 -10 51 -12 33
-68 250 -74 290 -2 17 -5 83 -5 148 l-1 118 -56 54 c-56 56 -68 62 -78 46z"/>
<path d="M745 719 c-4 -6 -5 -13 -2 -16 7 -7 27 6 27 18 0 12 -17 12 -25 -2z"/>
<path d="M790 711 c0 -7 -6 -19 -14 -26 -11 -12 -16 -12 -32 0 -26 19 -31 19
-45 -6 -9 -17 -8 -20 3 -13 22 14 36 13 42 -3 3 -8 1 -11 -5 -8 -5 4 -17 1
-25 -6 -10 -8 -11 -14 -4 -19 8 -5 6 -11 -3 -19 -12 -9 -18 -9 -30 3 -8 8 -17
12 -21 9 -11 -11 -6 -21 12 -25 14 -3 13 -6 -7 -17 -21 -12 -23 -11 -18 3 4 9
2 16 -4 16 -6 0 -7 5 -4 10 13 21 -25 9 -40 -12 -12 -18 -17 -20 -24 -9 -6 9
-11 10 -15 2 -4 -6 -2 -11 4 -11 7 0 10 -7 6 -15 -3 -8 -3 -22 0 -30 8 -21 34
-19 34 3 0 14 -2 15 -10 2 -8 -13 -10 -12 -10 3 0 9 5 17 10 17 6 0 10 9 10
20 0 11 4 20 9 20 5 0 11 -9 14 -20 3 -11 14 -20 24 -20 27 0 167 140 153 154
-7 7 -10 6 -10 -3z"/>
<path d="M1116 712 c-3 -6 3 -49 14 -97 11 -47 20 -120 20 -163 0 -42 7 -99
16 -127 8 -27 19 -86 25 -130 5 -44 14 -93 18 -110 5 -16 12 -42 15 -57 5 -23
12 -28 36 -28 l30 0 -20 53 c-27 73 -56 211 -85 400 -13 89 -28 181 -33 205
-10 47 -26 70 -36 54z"/>
<path d="M1073 642 c7 -65 15 -100 40 -166 l11 -30 7 27 c10 38 -31 237 -49
237 -12 0 -14 -13 -9 -68z"/>
<path d="M655 650 c-3 -5 -1 -10 4 -10 6 0 11 5 11 10 0 6 -2 10 -4 10 -3 0
-8 -4 -11 -10z"/>
<path d="M540 545 c0 -14 4 -25 9 -25 4 0 6 11 3 25 -2 14 -6 25 -8 25 -2 0
-4 -11 -4 -25z"/>
<path d="M665 480 c-6 -9 36 -53 43 -45 2 1 0 14 -4 29 -6 26 -27 35 -39 16z"/>
<path d="M450 449 c0 -5 5 -7 10 -4 6 3 10 8 10 11 0 2 -4 4 -10 4 -5 0 -10
-5 -10 -11z"/>
<path d="M559 391 c-54 -62 -127 -192 -134 -237 -6 -40 -4 -44 39 -84 55 -52
89 -70 130 -70 26 0 34 5 43 29 13 36 7 276 -9 338 -16 66 -30 70 -69 24z"/>
<path d="M345 310 c-3 -5 -1 -10 4 -10 6 0 11 5 11 10 0 6 -2 10 -4 10 -3 0
-8 -4 -11 -10z"/>
<path d="M1802 287 c-7 -19 -15 -66 -18 -103 l-6 -69 31 54 c30 52 30 55 18
103 l-12 50 -13 -35z"/>
<path d="M297 233 c6 -42 25 -69 41 -59 17 10 7 55 -16 76 -29 27 -32 26 -25
-17z m43 -37 c0 -3 -4 -8 -10 -11 -5 -3 -10 -1 -10 4 0 6 5 11 10 11 6 0 10
-2 10 -4z"/>
<path d="M3920 255 c15 -18 0 -95 -19 -95 -14 0 -14 -2 -1 -10 34 -22 45 -12
45 40 0 32 5 54 14 59 9 6 4 10 -18 13 -21 3 -28 1 -21 -7z"/>
<path d="M272 220 c0 -14 2 -19 5 -12 2 6 2 18 0 25 -3 6 -5 1 -5 -13z"/>
<path d="M248 195 c5 -11 7 -33 6 -48 -3 -34 11 -77 26 -77 6 0 16 11 22 25 9
21 8 32 -6 62 -9 19 -20 33 -23 29 -3 -3 -12 2 -20 12 -13 16 -13 15 -5 -3z
m46 -89 c-3 -9 -11 -16 -17 -16 -7 0 -7 4 1 12 16 16 15 31 -1 25 -12 -4 -15
13 -7 43 0 3 7 -7 15 -22 8 -15 12 -34 9 -42z"/>
<path d="M1819 150 c-32 -60 -40 -79 -49 -117 -7 -31 -6 -33 19 -33 23 0 33 9
54 49 30 54 32 72 13 116 l-13 30 -24 -45z"/>
<path d="M3970 140 c0 -5 4 -10 9 -10 6 0 13 5 16 10 3 6 -1 10 -9 10 -9 0
-16 -4 -16 -10z"/>
<path d="M231 130 c-7 -14 -7 -51 0 -62 4 -7 1 -17 -9 -25 -16 -12 -16 -12 0
-13 11 0 15 -5 12 -15 -4 -10 0 -15 15 -15 21 0 21 8 0 55 -4 11 -10 34 -12
50 -2 17 -5 28 -6 25z"/>
<path d="M3895 43 c0 -28 4 -43 13 -43 7 0 12 12 12 28 0 15 5 33 11 39 7 7 4
12 -13 15 -21 4 -23 1 -23 -39z"/>
<path d="M397 73 c-3 -5 -8 -23 -12 -41 l-7 -32 68 0 c37 0 65 2 63 4 -13 12
-100 76 -103 76 -3 0 -7 -3 -9 -7z"/>
<path d="M1861 41 l-21 -41 40 0 c45 0 48 6 21 51 l-19 32 -21 -42z"/>
<path d="M3970 65 c6 -7 8 -25 4 -39 -3 -15 -2 -26 4 -26 9 0 22 32 22 56 0 7
-9 14 -21 17 -16 4 -18 3 -9 -8z"/>
<path d="M150 53 c0 -6 8 -17 18 -24 16 -13 16 -13 2 6 -8 11 -16 22 -17 24
-2 2 -3 0 -3 -6z"/>
<path d="M650 31 c-15 -29 -13 -31 25 -31 l36 0 -18 25 c-22 30 -29 31 -43 6z"/>
</g>
</svg>
